<svg xmlns="http://www.w3.org/2000/svg" viewBox="0 0 64 64">
  <rect width="64" height="64" rx="14" fill="#2D0A16"/>
  <!-- Graduation Cap -->
  <polygon points="32,12 10,24 32,34 54,24" fill="#C9A96E"/>
  <rect x="29" y="10" width="6" height="4" rx="1" fill="#C9A96E"/>
  <line x1="48" y1="24" x2="48" y2="36" stroke="#C9A96E" stroke-width="2"/>
  <circle cx="48" cy="38" r="3" fill="#E8C4B8"/>
  <!-- Heart -->
  <path d="M32,54 C32,54 18,44 18,38 C18,34 22,32 26,34 C28,35.5 30,37 32,40 C34,37 36,35.5 38,34 C42,32 46,34 46,38 C46,44 32,54 32,54Z" fill="#E8C4B8" opacity="0.85"/>
</svg>
